<svg width="998" height="1811" viewBox="0 0 998 1811" fill="none" xmlns="http://www.w3.org/2000/svg">
<g clip-path="url(#clip0_327_282)">
<rect width="998" height="1811" fill="#EFA00B"/>
<path fill-rule="evenodd" clip-rule="evenodd" d="M1286.58 1419.58C1286.58 1419.58 1459.02 1335.64 1620.59 1105.14C1580.01 1058.22 1523.99 1033.31 1487.46 1021.29C1465.41 1014.01 1399.48 1084.18 1399.48 1084.18C1399.48 1084.18 1440.38 1002.17 1421.85 990.152C1390.96 970.154 1336.64 942.438 1266.88 937C1105.3 1167.41 1103.28 1332.4 1103.28 1332.4L1194.88 1375.99L1286.48 1419.58H1286.58ZM779.388 1084.26C779.388 1084.26 738.489 1002.17 757.234 990.064H757.128C788.122 970.066 842.228 942.525 911.885 937.087C1073.46 1167.5 1075.48 1332.48 1075.48 1332.48L983.885 1376.08L892.287 1419.67C892.287 1419.67 719.85 1335.64 558.276 1105.23C598.963 1058.22 655.306 1033.31 691.732 1021.29C713.566 1014.1 779.388 1084.26 779.388 1084.26ZM878.548 1526.5V1439.32C878.548 1439.32 703.98 1358.27 380.939 1358.27C351.862 1410.63 353.78 1463.09 359.318 1495.1C362.62 1514.48 469.448 1526.41 469.448 1526.41C469.448 1526.41 362.726 1538.25 359.425 1557.46C353.886 1589.48 351.862 1642.01 381.046 1694.55C704.193 1694.55 878.654 1613.51 878.654 1613.51V1526.32L878.548 1526.5ZM558.276 1947.86C719.85 1717.36 892.287 1633.42 892.287 1633.42H892.394L983.991 1677.01L1075.59 1720.6C1075.59 1720.6 1073.56 1885.59 911.991 2116C842.228 2110.56 787.909 2082.85 757.021 2062.85C738.489 2050.83 779.388 1968.82 779.388 1968.82C779.388 1968.82 713.459 2038.99 691.412 2031.71C654.88 2019.69 598.856 1994.78 558.276 1947.86ZM1194.98 1677.01L1286.58 1633.42H1286.69C1286.69 1633.42 1459.13 1717.44 1620.7 1947.86C1580.01 1994.87 1523.67 2019.78 1487.24 2031.8C1465.41 2038.99 1399.59 1968.82 1399.59 1968.82C1399.59 1968.82 1440.49 2050.92 1421.74 2063.02C1390.75 2083.02 1336.64 2110.56 1266.98 2116C1105.41 1885.59 1103.39 1720.6 1103.39 1720.6L1194.98 1677.01ZM1709.63 1526.5C1709.63 1526.5 1816.46 1538.43 1819.76 1557.81L1819.66 1557.9C1825.2 1589.91 1827.11 1642.37 1798.04 1694.73C1475 1694.73 1300.43 1613.68 1300.43 1613.68V1439.4C1300.43 1439.4 1474.89 1358.36 1798.04 1358.36C1827.22 1410.9 1825.2 1463.44 1819.66 1495.45C1816.36 1514.66 1709.63 1526.5 1709.63 1526.5Z" fill="#FCF7F8"/>
<path fill-rule="evenodd" clip-rule="evenodd" d="M115.337 77.75C115.337 77.75 127.444 70.4882 138.789 50.5465C135.94 46.4868 132.006 44.3318 129.441 43.2922C127.893 42.6624 123.264 48.7329 123.264 48.7329C123.264 48.7329 126.136 41.638 124.835 40.5984C122.666 38.8683 118.852 36.4705 113.954 36C102.61 55.9341 102.468 70.2074 102.468 70.2074L108.899 73.9787L115.33 77.75H115.337ZM79.7266 48.7405C79.7266 48.7405 76.855 41.638 78.1712 40.5908H78.1637C80.3398 38.8607 84.1387 36.478 89.0294 36.0075C100.374 55.9416 100.516 70.215 100.516 70.215L94.0846 73.9863L87.6534 77.7576C87.6534 77.7576 75.5464 70.4881 64.2021 50.554C67.0587 46.4868 71.0146 44.3318 73.5722 43.2922C75.1052 42.67 79.7266 48.7405 79.7266 48.7405ZM86.6888 87V79.4574C86.6888 79.4574 74.4321 72.4459 51.751 72.4459C49.7095 76.976 49.8441 81.5137 50.233 84.2834C50.4648 85.9604 57.9653 86.9924 57.9653 86.9924C57.9653 86.9924 50.4723 88.0168 50.2404 89.6786C49.8516 92.4483 49.7095 96.9936 51.7585 101.539C74.4471 101.539 86.6962 94.5274 86.6962 94.5274V86.9848L86.6888 87ZM64.2021 123.453C75.5464 103.512 87.6534 96.25 87.6534 96.25H87.6609L94.0921 100.021L100.523 103.793C100.523 103.793 100.381 118.066 89.0369 138C84.1387 137.53 80.3249 135.132 78.1562 133.402C76.855 132.362 79.7266 125.267 79.7266 125.267C79.7266 125.267 75.0977 131.338 73.5497 130.708C70.9847 129.668 67.0512 127.513 64.2021 123.453ZM108.906 100.021L115.337 96.25H115.345C115.345 96.25 127.452 103.519 138.796 123.453C135.94 127.521 131.984 129.676 129.426 130.715C127.893 131.338 123.272 125.267 123.272 125.267C123.272 125.267 126.143 132.37 124.827 133.417C122.651 135.147 118.852 137.53 113.961 138C102.617 118.066 102.475 103.793 102.475 103.793L108.906 100.021ZM145.04 87C145.04 87 152.541 88.032 152.773 89.709L152.765 89.7166C153.154 92.4862 153.289 97.0239 151.247 101.554C128.566 101.554 116.31 94.5426 116.31 94.5426V79.465C116.31 79.465 128.559 72.4535 151.247 72.4535C153.296 76.9988 153.154 81.5441 152.765 84.3138C152.534 85.9756 145.04 87 145.04 87Z" fill="#EFA00B"/>
<path fill-rule="evenodd" clip-rule="evenodd" d="M94.5825 340.581C94.5825 340.581 267.02 256.643 428.593 26.1405C388.014 -20.7845 331.99 -45.6942 295.458 -57.7105C273.41 -64.9905 207.482 5.17773 207.482 5.17773C207.482 5.17773 248.381 -76.8314 229.848 -88.8477C198.961 -108.846 144.641 -136.562 74.8783 -142C-86.6953 88.4146 -88.7189 253.397 -88.7189 253.397L2.87842 296.989L94.4759 340.581H94.5825ZM-412.612 5.26495C-412.612 5.26495 -453.511 -76.8318 -434.766 -88.9358H-434.872C-403.878 -108.934 -349.772 -136.475 -280.115 -141.913C-118.542 88.5019 -116.518 253.485 -116.518 253.485L-208.115 297.077L-299.713 340.669C-299.713 340.669 -472.15 256.642 -633.724 26.2277C-593.037 -20.785 -536.694 -45.6947 -500.268 -57.711C-478.434 -64.9032 -412.612 5.26495 -412.612 5.26495ZM-313.452 447.5V360.316C-313.452 360.316 -488.02 279.272 -811.061 279.272C-840.138 331.635 -838.22 384.085 -832.682 416.1C-829.38 435.484 -722.552 447.412 -722.552 447.412C-722.552 447.412 -829.274 459.253 -832.575 478.461C-838.114 510.476 -840.138 563.014 -810.954 615.553C-487.807 615.553 -313.346 534.508 -313.346 534.508V447.324L-313.452 447.5ZM-633.724 868.859C-472.15 638.357 -299.713 554.419 -299.713 554.419H-299.606L-208.009 598.01L-116.411 641.602C-116.411 641.602 -118.435 806.585 -280.009 1037C-349.772 1031.56 -404.091 1003.85 -434.979 983.848C-453.511 971.831 -412.612 889.822 -412.612 889.822C-412.612 889.822 -478.541 959.99 -500.588 952.711C-537.12 940.694 -593.144 915.784 -633.724 868.859ZM2.98486 598.01L94.5823 554.419H94.6887C94.6887 554.419 267.126 638.445 428.7 868.859C388.014 915.872 331.671 940.782 295.245 952.798C273.41 959.99 207.588 889.822 207.588 889.822C207.588 889.822 248.487 971.919 229.742 984.023C198.748 1004.02 144.641 1031.56 74.9848 1037C-86.5889 806.585 -88.6127 641.602 -88.6127 641.602L2.98486 598.01ZM517.635 447.5C517.635 447.5 624.463 459.429 627.765 478.813L627.658 478.9C633.196 510.914 635.114 563.365 606.037 615.728C282.996 615.728 108.428 534.684 108.428 534.684V360.404C108.428 360.404 282.89 279.36 606.037 279.36C635.22 331.898 633.196 384.436 627.658 416.451C624.356 435.659 517.635 447.5 517.635 447.5Z" fill="#FCF7F8"/>
</g>
<defs>
<clipPath id="clip0_327_282">
<rect width="998" height="1811" fill="white"/>
</clipPath>
</defs>
</svg>
