<svg width="55" height="55" viewBox="0 0 55 55" fill="none" xmlns="http://www.w3.org/2000/svg">
<path d="M34.8889 32.4877L31.4548 34.5212L28.0206 36.5548C28.0206 36.5548 28.0965 44.2512 34.1541 55C36.7657 54.7463 38.7942 53.4615 39.9562 52.5286C40.659 51.9639 39.1256 48.1342 39.1256 48.1342C39.1256 48.1342 41.5934 51.4075 42.412 51.072C43.7777 50.5114 45.8901 49.3494 47.4154 47.1562C41.3578 36.4075 34.8929 32.4877 34.8929 32.4877H34.8889Z" fill="#FCF7F8"/>
<path d="M20.1062 32.4877C20.1062 32.4877 13.6413 36.4034 7.58362 47.1562C9.10501 49.3453 11.2054 50.5073 12.5751 51.0679C13.4017 51.4075 15.8734 48.1342 15.8734 48.1342C15.8734 48.1342 14.3401 51.9598 15.0349 52.5204C16.1929 53.4533 18.2294 54.7463 20.8449 55C26.9026 44.2512 26.9784 36.5548 26.9784 36.5548L23.5443 34.5212L20.1102 32.4877H20.1062Z" fill="#FCF7F8"/>
<path d="M19.5911 27.5V23.4329C19.5911 23.4329 13.0463 19.6522 0.935007 19.6522C-0.155127 22.0949 -0.0832497 24.5417 0.124395 26.0352C0.248183 26.9395 4.25333 27.4959 4.25333 27.4959C4.25333 27.4959 0.25218 28.0483 0.128392 28.9444C-0.0792526 30.4378 -0.155123 32.8887 0.939004 35.3396C13.0543 35.3396 19.5951 31.5589 19.5951 31.5589V27.4918L19.5911 27.5Z" fill="#FCF7F8"/>
<path d="M15.0429 2.47538C14.3401 3.04003 15.8734 6.86982 15.8734 6.86982C15.8734 6.86982 13.4057 3.5965 12.5871 3.93202C11.2214 4.49257 9.10901 5.6546 7.58362 7.84773C13.6413 18.5965 20.1062 22.5163 20.1062 22.5163L23.5403 20.4828L26.9744 18.4492C26.9744 18.4492 26.8986 10.7528 20.8409 0.00402832C18.2294 0.257711 16.2009 1.54249 15.0389 2.47538H15.0429Z" fill="#FCF7F8"/>
<path d="M34.889 22.5123C34.889 22.5123 41.3539 18.5966 47.4115 7.8437C45.8901 5.65467 43.7897 4.49264 42.4201 3.93208C41.5935 3.59247 39.1217 6.8658 39.1217 6.8658C39.1217 6.8658 40.6551 3.0401 39.9603 2.47954C38.8023 1.54664 36.7658 0.253683 34.1502 0C28.0926 10.7488 28.0167 18.4452 28.0167 18.4452L31.4508 20.4787L34.885 22.5123H34.889Z" fill="#FCF7F8"/>
<path d="M54.8786 28.9607C54.7549 28.0564 50.7497 27.4999 50.7497 27.4999C50.7497 27.4999 54.7509 26.9476 54.8746 26.0515C55.0823 24.5581 55.1582 22.1072 54.064 19.6562C41.9488 19.6562 35.408 23.4369 35.408 23.4369V31.5671C35.408 31.5671 41.9528 35.3477 54.064 35.3477C55.1542 32.905 55.0823 30.4582 54.8746 28.9648L54.8786 28.9607Z" fill="#FCF7F8"/>
</svg>
