<svg width="443" height="146" viewBox="0 0 443 146" fill="none" xmlns="http://www.w3.org/2000/svg">
<g clip-path="url(#clip0_57_711)">
<rect width="443" height="146" fill="#134074"/>
<path d="M-20.7774 85.4009C-22.9369 86.6329 -18.2252 94.9888 -18.2252 94.9888C-18.2252 94.9888 -25.808 87.847 -28.3234 88.579C-32.5197 89.8021 -39.0105 92.3374 -43.6976 97.1224C-25.0841 120.574 -5.21913 129.127 -5.21913 129.127L5.33298 124.69L15.8851 120.253C15.8851 120.253 15.652 103.461 -2.96147 80.0089C-10.986 80.5624 -17.2191 83.3655 -20.7897 85.4009H-20.7774Z" fill="#59C3DC"/>
<path d="M40.2041 129.118C40.2041 129.118 60.0691 120.574 78.6825 97.1135C74.0077 92.3375 67.5537 89.8021 63.3451 88.5791C60.8053 87.8381 53.2102 94.9799 53.2102 94.9799C53.2102 94.9799 57.9218 86.6329 55.7869 85.4099C52.2286 83.3745 45.971 80.5535 37.9342 80C19.3207 103.452 19.0876 120.244 19.0876 120.244L29.6397 124.681L40.1918 129.118H40.2041Z" fill="#59C3DC"/>
<path d="M101.627 143.187C101.247 141.214 88.9402 140 88.9402 140C88.9402 140 101.235 138.795 101.615 136.84C102.253 133.581 102.486 128.234 99.1242 122.886C61.8973 122.886 41.7992 131.135 41.7992 131.135V148.874C41.7992 148.874 61.9096 157.122 99.1242 157.122C102.474 151.793 102.253 146.454 101.615 143.196L101.627 143.187Z" fill="#59C3DC"/>
<path d="M407.204 8.88229L396.652 13.3191L386.1 17.756C386.1 17.756 386.333 34.5481 404.946 58C412.971 57.4465 419.204 54.6433 422.775 52.6079C424.934 51.376 420.222 43.0201 420.222 43.0201C420.222 43.0201 427.805 50.1619 430.321 49.4298C434.517 48.2068 441.008 45.6715 445.695 40.8865C427.081 17.4346 407.216 8.88229 407.216 8.88229H407.204Z" fill="#59C3DC"/>
<path d="M361.781 8.88229C361.781 8.88229 341.916 17.4257 323.302 40.8865C327.977 45.6625 334.431 48.1979 338.64 49.4209C341.18 50.1619 348.775 43.0201 348.775 43.0201C348.775 43.0201 344.063 51.367 346.198 52.5901C349.756 54.6255 356.014 57.4465 364.051 58C382.664 34.5481 382.897 17.756 382.897 17.756L372.345 13.3191L361.793 8.88229H361.781Z" fill="#59C3DC"/>
<path d="M360.198 -2.00002V-10.8737C360.198 -10.8737 340.088 -19.1225 302.873 -19.1225C299.523 -13.7929 299.744 -8.45442 300.382 -5.19597C300.763 -3.22305 313.069 -2.00894 313.069 -2.00894C313.069 -2.00894 300.775 -0.803768 300.395 1.1513C299.756 4.40974 299.523 9.75717 302.885 15.1046C340.112 15.1046 360.21 6.85581 360.21 6.85581V-2.01788L360.198 -2.00002Z" fill="#59C3DC"/>
<path d="M468.627 1.18703C468.247 -0.785886 455.94 -2 455.94 -2C455.94 -2 468.235 -3.20517 468.615 -5.16024C469.253 -8.41868 469.486 -13.7661 466.124 -19.1135C428.897 -19.1135 408.799 -10.8647 408.799 -10.8647V6.87369C408.799 6.87369 428.91 15.1225 466.124 15.1225C469.474 9.79289 469.253 4.4544 468.615 1.19596L468.627 1.18703Z" fill="#59C3DC"/>
</g>
<defs>
<clipPath id="clip0_57_711">
<rect width="443" height="146" fill="white"/>
</clipPath>
</defs>
</svg>
