<svg width="47" height="47" viewBox="0 0 47 47" fill="none" xmlns="http://www.w3.org/2000/svg">
<path d="M29.8142 27.7622L26.8796 29.5L23.9449 31.2377C23.9449 31.2377 24.0098 37.8147 29.1863 47C31.418 46.7832 33.1515 45.6853 34.1444 44.8881C34.745 44.4056 33.4347 41.1328 33.4347 41.1328C33.4347 41.1328 35.5435 43.93 36.243 43.6433C37.4101 43.1643 39.2152 42.1713 40.5187 40.2972C35.3422 31.1119 29.8176 27.7622 29.8176 27.7622H29.8142Z" fill="#EFA00B"/>
<path d="M17.1817 27.7622C17.1817 27.7622 11.6571 31.1084 6.48059 40.2972C7.78069 42.1678 9.57559 43.1608 10.746 43.6398C11.4524 43.93 13.5646 41.1328 13.5646 41.1328C13.5646 41.1328 12.2543 44.4021 12.848 44.8811C13.8376 45.6783 15.5779 46.7832 17.813 47C22.9895 37.8147 23.0543 31.2377 23.0543 31.2377L20.1197 29.5L17.1851 27.7622H17.1817Z" fill="#EFA00B"/>
<path d="M16.7415 23.5V20.0245C16.7415 20.0245 11.1486 16.7937 0.799006 16.7937C-0.132563 18.8811 -0.0711406 20.972 0.106301 22.2482C0.212084 23.021 3.63467 23.4965 3.63467 23.4965C3.63467 23.4965 0.215499 23.9685 0.109717 24.7343C-0.067725 26.0105 -0.13256 28.1049 0.802422 30.1993C11.1555 30.1993 16.7449 26.9685 16.7449 26.9685V23.493L16.7415 23.5Z" fill="#EFA00B"/>
<path d="M12.8548 2.11537C12.2543 2.59788 13.5646 5.87061 13.5646 5.87061C13.5646 5.87061 11.4558 3.07341 10.7563 3.36012C9.58923 3.83914 7.78411 4.83215 6.48059 6.70628C11.6571 15.8916 17.1817 19.2412 17.1817 19.2412L20.1163 17.5035L23.0509 15.7657C23.0509 15.7657 22.9861 9.1888 17.8096 0.003479C15.5779 0.220262 13.8444 1.31816 12.8514 2.11537H12.8548Z" fill="#EFA00B"/>
<path d="M29.8142 19.2378C29.8142 19.2378 35.3387 15.8916 40.5153 6.7028C39.2152 4.83217 37.4203 3.83916 36.2498 3.36014C35.5435 3.06993 33.4313 5.86714 33.4313 5.86714C33.4313 5.86714 34.7416 2.5979 34.1478 2.11888C33.1583 1.32168 31.418 0.216783 29.1829 0C24.0064 9.18532 23.9415 15.7622 23.9415 15.7622L26.8761 17.5L29.8108 19.2378H29.8142Z" fill="#EFA00B"/>
<path d="M46.8964 24.7482C46.7906 23.9755 43.368 23.5 43.368 23.5C43.368 23.5 46.7872 23.028 46.893 22.2622C47.0704 20.986 47.1353 18.8916 46.2003 16.7972C35.8472 16.7972 30.2578 20.028 30.2578 20.028V26.9755C30.2578 26.9755 35.8506 30.2063 46.2003 30.2063C47.1318 28.1189 47.0704 26.028 46.893 24.7517L46.8964 24.7482Z" fill="#EFA00B"/>
</svg>
