<svg width="45" height="45" viewBox="0 0 45 45" fill="none" xmlns="http://www.w3.org/2000/svg">
<path d="M31.875 3.75H13.125C7.94733 3.75 3.75 7.94733 3.75 13.125V31.875C3.75 37.0527 7.94733 41.25 13.125 41.25H31.875C37.0527 41.25 41.25 37.0527 41.25 31.875V13.125C41.25 7.94733 37.0527 3.75 31.875 3.75Z" stroke="#FCF7F8" stroke-width="5" stroke-linecap="round" stroke-linejoin="round"/>
<path d="M30 21.3188C30.2314 22.8792 29.9649 24.4729 29.2383 25.8732C28.5117 27.2734 27.3621 28.4089 25.953 29.1181C24.5439 29.8274 22.9471 30.0742 21.3896 29.8236C19.8321 29.573 18.3933 28.8377 17.2778 27.7222C16.1623 26.6067 15.427 25.1679 15.1764 23.6104C14.9258 22.0529 15.1726 20.4561 15.8819 19.047C16.5911 17.6379 17.7266 16.4883 19.1268 15.7617C20.5271 15.0351 22.1208 14.7686 23.6813 15C25.273 15.236 26.7466 15.9777 27.8844 17.1156C29.0223 18.2534 29.764 19.727 30 21.3188Z" stroke="#FCF7F8" stroke-width="5" stroke-linecap="round" stroke-linejoin="round"/>
<path d="M32.8125 12.1875H32.8313" stroke="#FCF7F8" stroke-width="5" stroke-linecap="round" stroke-linejoin="round"/>
</svg>
