<svg width="45" height="45" viewBox="0 0 45 45" fill="none" xmlns="http://www.w3.org/2000/svg">
<path d="M31.875 3.75H13.125C7.94733 3.75 3.75 7.94733 3.75 13.125V31.875C3.75 37.0527 7.94733 41.25 13.125 41.25H31.875C37.0527 41.25 41.25 37.0527 41.25 31.875V13.125C41.25 7.94733 37.0527 3.75 31.875 3.75Z" stroke="#EFA00B" stroke-width="5" stroke-linecap="round" stroke-linejoin="round"/>
<path d="M29.9999 21.3187C30.2313 22.8792 29.9648 24.4729 29.2382 25.8731C28.5117 27.2734 27.3621 28.4089 25.953 29.1181C24.5439 29.8273 22.947 30.0742 21.3895 29.8236C19.832 29.573 18.3932 28.8376 17.2778 27.7221C16.1623 26.6067 15.4269 25.1678 15.1763 23.6104C14.9257 22.0529 15.1726 20.456 15.8818 19.0469C16.591 17.6378 17.7265 16.4882 19.1268 15.7617C20.527 15.0351 22.1207 14.7686 23.6812 15C25.2729 15.236 26.7465 15.9777 27.8844 17.1155C29.0222 18.2534 29.7639 19.727 29.9999 21.3187Z" stroke="#EFA00B" stroke-width="5" stroke-linecap="round" stroke-linejoin="round"/>
<path d="M32.8125 12.1875H32.8313" stroke="#EFA00B" stroke-width="5" stroke-linecap="round" stroke-linejoin="round"/>
</svg>
