<svg width="1920" height="1080" viewBox="0 0 1920 1080" fill="none" xmlns="http://www.w3.org/2000/svg">
<g clip-path="url(#clip0_57_730)">
<rect width="1920" height="1080" fill="#EFA00B"/>
<path d="M1341.55 1007.5V920.316C1341.55 920.316 1166.98 839.272 843.939 839.272C814.862 891.635 816.78 944.085 822.318 976.1C825.62 995.483 932.448 1007.41 932.448 1007.41C932.448 1007.41 825.726 1019.25 822.425 1038.46C816.886 1070.48 814.862 1123.01 844.046 1175.55C1167.19 1175.55 1341.65 1094.51 1341.65 1094.51V1007.32L1341.55 1007.5Z" fill="#FCF7F8"/>
<path d="M1220.23 471.064C1201.49 483.168 1242.39 565.265 1242.39 565.265C1242.39 565.265 1176.57 495.097 1154.73 502.289C1118.31 514.305 1061.96 539.215 1021.28 586.228C1182.85 816.642 1355.29 900.669 1355.29 900.669L1446.88 857.077L1538.48 813.485C1538.48 813.485 1536.46 648.502 1374.88 418.087C1305.23 423.525 1251.12 451.066 1220.13 471.064H1220.23Z" fill="#FCF7F8"/>
<path d="M1749.58 900.581C1749.58 900.581 1922.02 816.643 2083.59 586.14C2043.01 539.216 1986.99 514.306 1950.46 502.289C1928.41 495.01 1862.48 565.178 1862.48 565.178C1862.48 565.178 1903.38 483.169 1884.85 471.152C1853.96 451.154 1799.64 423.438 1729.88 418C1568.3 648.415 1566.28 813.397 1566.28 813.397L1657.88 856.989L1749.48 900.581H1749.58Z" fill="#FCF7F8"/>
<path d="M2282.76 1038.81C2279.46 1019.43 2172.63 1007.5 2172.63 1007.5C2172.63 1007.5 2279.36 995.659 2282.66 976.451C2288.2 944.436 2290.22 891.898 2261.04 839.359C1937.89 839.359 1763.43 920.404 1763.43 920.404V1094.68C1763.43 1094.68 1938 1175.73 2261.04 1175.73C2290.11 1123.37 2288.2 1070.91 2282.66 1038.9L2282.76 1038.81Z" fill="#FCF7F8"/>
</g>
<defs>
<clipPath id="clip0_57_730">
<rect width="1920" height="1080" fill="white"/>
</clipPath>
</defs>
</svg>
