<svg width="301" height="76" viewBox="0 0 301 76" fill="none" xmlns="http://www.w3.org/2000/svg">
<path d="M48.9156 44.4301L44.0956 47.2101L39.2756 49.9901C39.2756 49.9901 39.3856 60.52 47.8756 75.22C51.5356 74.87 54.3856 73.11 56.0056 71.84C56.9856 71.07 54.8456 65.83 54.8456 65.83C54.8456 65.83 58.3056 70.3101 59.4556 69.8501C61.3756 69.0801 64.3256 67.5001 66.4656 64.4901C57.9756 49.7801 48.9156 44.4301 48.9156 44.4301Z" fill="#EFA00B"/>
<path d="M28.1956 44.4301C28.1956 44.4301 19.1356 49.7901 10.6456 64.4901C12.7756 67.4801 15.7256 69.07 17.6356 69.84C18.7956 70.31 22.2556 65.83 22.2556 65.83C22.2556 65.83 20.1056 71.06 21.0756 71.83C22.6956 73.11 25.5556 74.87 29.2256 75.22C37.7156 60.51 37.8256 49.9901 37.8256 49.9901L33.0056 47.2101L28.1856 44.4301H28.1956Z" fill="#EFA00B"/>
<path d="M27.4656 37.61V32.05C27.4656 32.05 18.2956 26.88 1.3156 26.88C-0.214395 30.22 -0.114395 33.57 0.175605 35.61C0.355605 36.85 5.9556 37.61 5.9556 37.61C5.9556 37.61 0.345605 38.36 0.175605 39.59C-0.114395 41.63 -0.224395 44.99 1.3156 48.34C18.2956 48.34 27.4656 43.17 27.4656 43.17V37.61Z" fill="#EFA00B"/>
<path d="M28.1956 30.79L33.0156 28.01L37.8356 25.23C37.8356 25.23 37.7256 14.7 29.2356 0C25.5756 0.35 22.7256 2.11 21.1056 3.38C20.1256 4.15 22.2656 9.39 22.2656 9.39C22.2656 9.39 18.8056 4.91 17.6556 5.37C15.7356 6.14 12.7856 7.72 10.6456 10.73C19.1356 25.44 28.1956 30.79 28.1956 30.79Z" fill="#EFA00B"/>
<path d="M48.9156 30.79C48.9156 30.79 57.9756 25.43 66.4656 10.73C64.3356 7.74 61.3856 6.15 59.4756 5.38C58.3156 4.91001 54.8556 9.39 54.8556 9.39C54.8556 9.39 57.0056 4.16 56.0356 3.39C54.4156 2.11 51.5556 0.35 47.8856 0C39.3956 14.71 39.2856 25.23 39.2856 25.23L44.1056 28.01L48.9256 30.79H48.9156Z" fill="#EFA00B"/>
<path d="M71.1456 37.61C71.1456 37.61 76.7556 36.86 76.9256 35.63C77.2156 33.59 77.3256 30.23 75.7856 26.88C58.8056 26.88 49.6356 32.05 49.6356 32.05V43.17C49.6356 43.17 58.8056 48.34 75.7856 48.34C77.3156 45 77.2156 41.65 76.9256 39.61C76.7456 38.37 71.1456 37.61 71.1456 37.61Z" fill="#EFA00B"/>
<path d="M121.646 40.93L137.506 62.77H128.046L113.416 41.8H112.026V62.77H104.296V11.53H113.356C120.126 11.53 125.016 12.8 128.026 15.35C131.346 18.18 133.006 21.92 133.006 26.57C133.006 30.2 131.966 33.32 129.886 35.93C127.806 38.54 125.066 40.21 121.656 40.94L121.646 40.93ZM112.026 35.05H114.486C121.806 35.05 125.466 32.25 125.466 26.65C125.466 21.41 121.906 18.79 114.776 18.79H112.026V35.05Z" fill="#EFA00B"/>
<path d="M173.226 48.36H150.066C150.266 51.01 151.126 53.13 152.656 54.7C154.186 56.25 156.136 57.0201 158.526 57.0201C160.386 57.0201 161.926 56.58 163.136 55.69C164.326 54.8 165.696 53.17 167.216 50.78L173.526 54.3C172.556 55.96 171.526 57.38 170.436 58.56C169.356 59.74 168.186 60.72 166.946 61.48C165.706 62.24 164.366 62.8 162.926 63.16C161.486 63.5201 159.926 63.69 158.246 63.69C153.426 63.69 149.546 62.14 146.626 59.04C143.706 55.92 142.246 51.7801 142.246 46.6301C142.246 41.4801 143.666 37.38 146.496 34.22C149.346 31.1 153.136 29.54 157.846 29.54C162.556 29.54 166.366 31.06 169.126 34.09C171.866 37.1 173.246 41.2701 173.246 46.6001L173.216 48.36H173.226ZM165.556 42.26C164.516 38.28 162.006 36.29 158.026 36.29C157.116 36.29 156.266 36.43 155.466 36.7C154.666 36.97 153.946 37.38 153.296 37.9C152.646 38.42 152.086 39.0401 151.616 39.7701C151.156 40.5 150.796 41.33 150.556 42.26H165.556Z" fill="#EFA00B"/>
<path d="M181.386 11.53H188.856V33.13C191.506 30.74 194.446 29.55 197.646 29.55C201.296 29.55 204.216 30.73 206.406 33.1C208.266 35.16 209.196 38.44 209.196 42.96V62.77H201.726V43.65C201.726 41.06 201.266 39.19 200.346 38.03C199.426 36.87 197.946 36.29 195.916 36.29C193.306 36.29 191.466 37.1 190.406 38.71C189.366 40.35 188.846 43.16 188.846 47.14V62.77H181.376V11.53H181.386Z" fill="#EFA00B"/>
<path d="M248.086 48.36H224.926C225.126 51.01 225.986 53.13 227.516 54.7C229.046 56.25 231.006 57.0201 233.396 57.0201C235.256 57.0201 236.786 56.58 238.006 55.69C239.206 54.8 240.566 53.17 242.086 50.78L248.396 54.3C247.426 55.96 246.396 57.38 245.306 58.56C244.226 59.74 243.056 60.72 241.816 61.48C240.576 62.24 239.236 62.8 237.796 63.16C236.356 63.51 234.796 63.69 233.116 63.69C228.296 63.69 224.416 62.14 221.496 59.04C218.576 55.92 217.116 51.7801 217.116 46.6301C217.116 41.4801 218.526 37.38 221.366 34.22C224.216 31.1 228.006 29.54 232.716 29.54C237.426 29.54 241.236 31.06 243.996 34.09C246.736 37.1 248.106 41.2701 248.106 46.6001L248.076 48.36H248.086ZM240.426 42.26C239.386 38.28 236.876 36.29 232.896 36.29C231.986 36.29 231.136 36.43 230.336 36.7C229.536 36.97 228.816 37.38 228.166 37.9C227.516 38.42 226.956 39.0401 226.486 39.7701C226.026 40.5 225.666 41.33 225.426 42.26H240.426Z" fill="#EFA00B"/>
<path d="M256.256 30.44H263.726V33.4301C265.166 31.9201 266.386 30.9101 267.406 30.3801C268.486 29.8301 269.846 29.55 271.486 29.55C275.136 29.55 278.026 31.14 280.146 34.33C282.486 31.15 285.666 29.55 289.676 29.55C296.956 29.55 300.596 33.96 300.596 42.79V62.7701H293.096V44.8201C293.096 41.7201 292.716 39.53 291.966 38.25C291.196 36.95 289.916 36.29 288.146 36.29C286.086 36.29 284.586 37.06 283.646 38.61C282.706 40.16 282.236 42.65 282.236 46.08V62.7701H274.736V44.92C274.736 39.17 273.076 36.29 269.756 36.29C267.656 36.29 266.126 37.08 265.156 38.65C264.196 40.22 263.716 42.7 263.716 46.08V62.7701H256.246V30.45L256.256 30.44Z" fill="#EFA00B"/>
</svg>
