<svg width="45" height="45" viewBox="0 0 45 45" fill="none" xmlns="http://www.w3.org/2000/svg">
<g clip-path="url(#clip0_57_729)">
<path d="M42.2625 12.0375C42.0398 11.1476 41.5862 10.3323 40.9475 9.67389C40.3088 9.01545 39.5077 8.53722 38.625 8.2875C35.4 7.5 22.5 7.5 22.5 7.5C22.5 7.5 9.6 7.5 6.375 8.3625C5.49234 8.61222 4.69121 9.09045 4.05253 9.74889C3.41385 10.4073 2.96023 11.2226 2.7375 12.1125C2.14728 15.3854 1.85857 18.7056 1.875 22.0313C1.85396 25.382 2.14269 28.7274 2.7375 32.025C2.98305 32.8872 3.44683 33.6715 4.08402 34.3022C4.72122 34.9328 5.51029 35.3884 6.375 35.625C9.6 36.4875 22.5 36.4875 22.5 36.4875C22.5 36.4875 35.4 36.4875 38.625 35.625C39.5077 35.3753 40.3088 34.8971 40.9475 34.2386C41.5862 33.5802 42.0398 32.7649 42.2625 31.875C42.8482 28.6267 43.1369 25.3319 43.125 22.0313C43.146 18.6805 42.8573 15.3351 42.2625 12.0375Z" stroke="#FCF7F8" stroke-width="5" stroke-linecap="round" stroke-linejoin="round"/>
<path d="M18.2812 28.1625L29.0625 22.0312L18.2812 15.9V28.1625Z" stroke="#FCF7F8" stroke-width="5" stroke-linecap="round" stroke-linejoin="round"/>
</g>
<defs>
<clipPath id="clip0_57_729">
<rect width="45" height="45" fill="white"/>
</clipPath>
</defs>
</svg>
