<svg width="51" height="39" viewBox="0 0 51 39" fill="none" xmlns="http://www.w3.org/2000/svg">
<path d="M48 3.01849C46.0412 4.26076 43.8725 5.21089 41.5773 5.8323C40.3454 4.55875 38.7082 3.65609 36.8871 3.2464C35.066 2.83672 33.149 2.93977 31.3952 3.54163C29.6414 4.14348 28.1354 5.2151 27.0811 6.61155C26.0268 8.008 25.4748 9.6619 25.5 11.3496V13.1886C21.9054 13.2725 18.3435 12.5557 15.1316 11.1021C11.9197 9.64855 9.15747 7.50336 7.09091 4.85758C7.09091 4.85758 -1.09091 21.4094 17.3182 28.7657C13.1056 31.3367 8.08737 32.6258 3 32.4439C21.4091 41.6393 43.9091 32.4439 43.9091 11.2944C43.9072 10.7821 43.8524 10.2711 43.7455 9.76794C45.8331 7.91689 47.3062 5.57981 48 3.01849Z" stroke="#EFA00B" stroke-width="5" stroke-linecap="round" stroke-linejoin="round"/>
</svg>
